{"title":"Bigg Boss Grand Finale 7.01.12","uid":6941302,"size":1866005500,"categoryP":"video","categoryS":"hd___tv_shows","magnet":"?xt=urn:btih:0801cd8bd7acbb859f341507b5f9128ee7e62a53&amp;dn=Bigg+Boss+Grand+Finale+7.01.12&amp;tr=udp%3A%2F%2Ftracker.openbittorrent.com%3A80&amp;tr=udp%3A%2F%2Fopen.demonii.com%3A1337&amp;tr=udp%3A%2F%2Ftracker.coppersurfer.tk%3A6969&amp;tr=udp%3A%2F%2Fexodus.desync.com%3A6969","seeders":0,"leechers":1,"uploader":"arsenal_rocks","files":1,"time":1326042507,"description":"General\nComplete name                            : Bigg Boss Grand Finale 7.01.12\\\\Bigg Boss Finale.avi\nFormat                                   : AVI\nFormat/Info                              : Audio Video Interleave\nFile size                                : 1.74 GiB\nDuration                                 : 2h 8mn\nOverall bit rate                         : 1 938 Kbps\nWriting library                          : Boilsoft AVI tool build 1/release\n\nVideo\nID                                       : 0\nFormat                                   : MPEG-4 Visual\nFormat profile                           : Advanced Simple@L5\nFormat settings, BVOP                    : No\nFormat settings, QPel                    : No\nFormat settings, GMC                     : No warppoints\nFormat settings, Matrix                  : Default (H.263)\nCodec ID                                 : XVID\nCodec ID/Hint                            : XviD\nDuration                                 : 2h 8mn\nBit rate                                 : 1 800 Kbps\nWidth                                    : 1 280 pixels\nHeight                                   : 720 pixels\nDisplay aspect ratio                     : 16:9\nFrame rate                               : 25.000 fps\nColor space                              : YUV\nChroma subsampling                       : 4:2:0\nBit depth                                : 8 bits\nScan type                                : Progressive\nCompression mode                         : Lossy\nBits/(Pixel*Frame)                       : 0.078\nStream size                              : 1.61 GiB (93%)\nWriting library                          : XviD 62\n\nAudio\nID                                       : 1\nFormat                                   : MPEG Audio\nFormat version                           : Version 1\nFormat profile                           : Layer 3\nCodec ID                                 : 55\nCodec ID/Hint                            : MP3\nDuration                                 : 2h 8mn\nBit rate mode                            : Constant\nBit rate                                 : 128 Kbps\nChannel(s)                               : 2 channels\nSampling rate                            : 48.0 KHz\nCompression mode                         : Lossy\nStream size                              : 118 MiB (7%)\nAlignment                                : Split accross interleaves\nInterleave, duration                     : 40 ms (1.00 video frame)\nInterleave, preload duration             : 500 ms\n\nScreenShots:  &lt;a href=&quot;\nhttp://i1126.photobucket.com/albums/l610/arsenal40/1-30.jpg&quot; rel=&quot;nofollow&quot; target=&quot;_NEW&quot;&gt;\nhttp://i1126.photobucket.com/albums/l610/arsenal40/1-30.jpg&lt;/a&gt;","torrent":{"xt":"urn:btih:0801cd8bd7acbb859f341507b5f9128ee7e62a53","amp;dn":"Bigg+Boss+Grand+Finale+7.01.12","amp;tr":["udp%3A%2F%2Ftracker.openbittorrent.com%3A80","udp%3A%2F%2Fopen.demonii.com%3A1337","udp%3A%2F%2Ftracker.coppersurfer.tk%3A6969","udp%3A%2F%2Fexodus.desync.com%3A6969"],"infoHash":"0801cd8bd7acbb859f341507b5f9128ee7e62a53","infoHashBuffer":{"type":"Buffer","data":[8,1,205,139,215,172,187,133,159,52,21,7,181,249,18,142,231,230,42,83]},"announce":[],"urlList":[]}}